<svg version="1.1" id="Layer_1" xmlns="http://www.w3.org/2000/svg" xmlns:xlink="http://www.w3.org/1999/xlink" x="0px" y="0px"
	 width="100%" viewBox="0 0 304 300" enable-background="new 0 0 304 300" xml:space="preserve">
<path fill="#DFDFDF" opacity="1.000000" stroke="none" 
	d="
M175.000000,301.000000 
	C151.312439,301.000000 127.624878,301.000000 103.506577,300.655975 
	C104.076584,299.015778 104.869164,297.453735 106.118729,296.475342 
	C109.335907,293.956421 112.760872,291.703583 116.092850,289.330444 
	C120.843704,285.946747 125.589638,282.556122 130.329819,279.157532 
	C132.995270,277.246490 135.518646,275.100464 138.328033,273.434692 
	C144.241409,269.928528 150.923630,267.541687 154.660873,261.090393 
	C155.230042,260.107910 156.821945,259.753143 157.867432,259.005432 
	C163.924927,254.673370 169.960449,250.310562 176.350861,245.891846 
	C178.434219,245.223984 180.170105,244.622406 182.000916,244.277481 
	C182.382980,244.752014 182.670135,244.969894 183.156097,245.434326 
	C184.571472,245.438080 185.788025,245.195267 187.304047,244.870758 
	C188.424713,243.870056 189.245941,242.951019 190.305176,242.028870 
	C190.857651,242.055832 191.170532,242.097916 191.565308,242.578339 
	C193.720306,247.587204 197.182129,244.455688 200.175323,244.890411 
	C200.870972,244.246841 201.626083,243.293152 202.004822,242.208099 
	C202.484985,240.832443 202.659378,239.350052 202.965637,237.913681 
	C205.482819,246.172028 208.251846,247.638519 215.248413,243.971863 
	C216.314133,243.990997 217.023987,243.997437 217.858093,244.257874 
	C218.572250,244.312103 219.162140,244.112366 220.084778,243.917297 
	C220.953995,243.593369 221.490479,243.264755 222.365616,242.752365 
	C223.062424,241.340759 223.420593,240.112946 223.903259,238.576523 
	C223.610764,233.322281 220.876450,234.606506 218.014343,236.292892 
	C217.947968,236.529968 217.799683,236.999466 217.509552,237.036896 
	C216.784882,237.431152 216.350327,237.787949 215.644012,237.899475 
	C213.753860,236.725189 212.201416,235.177963 210.503220,234.996765 
	C207.043304,234.627609 203.504807,234.994873 199.661926,235.013489 
	C198.729141,235.332169 198.133148,235.696091 197.537140,236.059998 
	C198.328033,236.453781 199.118942,236.847549 199.929321,237.689087 
	C199.987335,240.247955 200.025879,242.359085 199.673218,244.324493 
	C197.605759,243.612854 195.929520,243.046906 195.068161,242.756088 
	C193.903610,239.779541 192.974167,237.403961 191.680115,235.022888 
	C190.829819,235.044754 190.344162,235.072083 189.474518,235.121704 
	C188.398972,237.781845 187.707367,240.419708 186.675476,243.097595 
	C185.291992,242.805420 184.248795,242.473251 183.186905,241.698227 
	C183.097595,239.511078 183.026962,237.766800 182.806488,235.711975 
	C181.762695,235.369705 180.868729,235.337967 179.729218,235.207062 
	C179.320602,235.040268 179.157516,234.972641 179.047119,234.551117 
	C180.583405,233.051514 182.067017,231.905777 183.957733,230.915268 
	C190.096680,231.070480 195.828522,231.070480 202.078018,231.070480 
	C202.078018,226.147049 202.078018,221.753220 202.078018,216.784256 
	C206.965607,216.784256 211.336380,216.784256 215.611618,216.784256 
	C215.611618,213.255676 215.611618,210.342056 215.611618,206.846329 
	C210.923859,206.846329 206.547318,206.846329 202.225586,206.846329 
	C202.225586,203.492233 202.225586,200.738678 202.225586,197.440247 
	C207.410416,197.440247 212.306747,197.440247 217.804871,197.440247 
	C217.804871,193.952026 217.804871,191.007019 218.162628,188.044601 
	C219.236389,188.005341 219.952393,187.983490 220.713669,188.231750 
	C220.826126,188.671600 220.893326,188.841370 220.856720,189.469452 
	C220.752884,203.615005 220.752884,217.302261 220.752884,231.028137 
	C222.900040,231.162247 224.383606,231.254898 225.892151,231.678177 
	C225.936050,232.670120 225.954971,233.331467 225.769882,234.157806 
	C225.742523,234.740952 225.919189,235.159088 226.095856,235.577240 
	C226.394028,235.110657 226.692200,234.644073 227.249863,234.018387 
	C228.058472,233.032806 228.607590,232.206329 229.611267,231.320801 
	C235.996429,231.261765 241.927017,231.261765 248.096222,231.261765 
	C248.096222,227.793396 248.096222,224.881668 248.096222,221.360809 
	C242.694229,221.360809 237.482910,221.360809 232.153992,221.360809 
	C232.153992,218.529251 232.153992,216.309769 232.153992,213.458862 
	C236.980804,213.458862 241.513657,213.458862 246.099106,213.458862 
	C246.099106,209.932266 246.099106,207.046646 246.099106,203.565323 
	C241.235046,203.565323 236.703445,203.565323 231.845566,203.565323 
	C231.969070,201.221512 232.059479,199.505829 232.175201,197.309906 
	C237.575043,197.309906 242.487015,197.309906 247.559845,197.309906 
	C247.799805,195.221436 247.985229,193.607773 248.530716,191.985474 
	C250.863937,190.881424 253.049149,190.044052 254.764175,188.634567 
	C257.907776,186.051010 260.389313,182.460205 263.832214,180.482559 
	C272.145111,175.707535 280.268433,170.779633 287.736420,164.704330 
	C291.136292,161.938492 295.410736,160.273346 299.132019,157.866943 
	C301.251007,156.496674 303.054443,154.638474 305.000000,153.000000 
	C305.000000,170.687561 305.000000,188.375122 304.650574,206.573502 
	C301.193756,209.069290 298.079590,211.043762 294.985474,213.049149 
	C294.441589,213.401642 293.648010,213.810577 293.536926,214.317688 
	C292.802368,217.671356 290.512939,218.152573 287.566742,218.094711 
	C286.394409,218.071686 284.997498,218.744888 284.055756,219.526428 
	C279.269897,223.498169 274.620056,227.633331 269.873444,231.653290 
	C268.812958,232.551437 267.583038,233.263428 266.382111,233.978821 
	C264.365601,235.180054 262.331604,236.355804 260.265808,237.469666 
	C256.180878,239.672241 252.069214,241.825241 247.981812,243.624649 
	C246.820923,241.421326 245.646835,239.592056 244.466095,237.752426 
	C245.166077,237.264450 246.058304,236.642456 246.950516,236.020447 
	C246.748810,235.557465 246.547119,235.094482 246.345413,234.631500 
	C244.711594,235.205231 241.994034,235.451294 241.698257,236.429581 
	C241.255844,237.892761 242.516876,239.870972 243.032745,241.950363 
	C243.008087,242.484497 243.004028,242.698395 242.682373,242.980743 
	C242.383331,243.815475 242.401855,244.581787 242.420395,245.348114 
	C243.947723,245.250702 245.475052,245.153290 246.994354,245.426910 
	C246.604675,246.676453 246.463379,247.856461 245.801788,248.383911 
	C241.953506,251.452133 238.033920,254.437912 234.037064,257.310516 
	C231.034851,259.468262 228.130615,261.274658 225.949203,264.761566 
	C224.408859,267.223755 219.656174,267.656830 216.357864,269.043884 
	C212.653824,270.601562 209.302032,272.337708 207.777069,276.656860 
	C207.174622,278.363129 204.904083,279.590881 203.214111,280.782715 
	C197.347794,284.919739 191.225723,288.718445 185.578384,293.129120 
	C183.428207,294.808472 182.263947,297.319244 178.804672,297.257477 
	C177.559113,297.235260 176.269516,299.680695 175.000000,301.000000 
M237.252563,244.504654 
	C238.045975,244.253571 238.839401,244.002472 239.632812,243.751389 
	C238.209167,240.724670 236.785507,237.697952 235.361862,234.671234 
	C234.842514,234.700516 234.323181,234.729797 233.803833,234.759079 
	C232.407867,237.970963 231.011917,241.182846 229.592514,244.448639 
	C232.572189,244.291077 234.608002,244.183426 237.252563,244.504654 
z"/>
<path fill="#F4F4F4" opacity="1.000000" stroke="none" 
	d="
M174.000000,0.999999 
	C195.020889,1.000000 216.041794,1.000000 237.530579,1.392351 
	C237.523453,3.326692 237.461624,5.851359 236.507019,6.252748 
	C229.825012,9.062346 224.316910,13.473954 218.940582,18.137451 
	C218.824036,18.238541 218.617584,18.228859 218.481384,18.315422 
	C211.806274,22.557606 204.339157,25.961214 198.686707,31.289665 
	C193.092590,36.563141 187.571808,41.219486 180.452469,44.212021 
	C178.505478,45.030411 177.458603,47.990227 175.540115,50.072628 
	C168.296555,50.183800 161.506027,50.352009 154.729004,50.122108 
	C151.671356,50.018383 149.980515,51.117985 148.413376,53.668663 
	C144.183228,60.553719 139.642532,67.247971 134.750580,73.920380 
	C127.320587,73.810135 120.278679,74.478447 113.431755,73.609779 
	C105.156128,72.559860 101.899513,77.546600 98.501076,83.368599 
	C94.428810,90.344948 90.019180,97.124374 85.378296,103.992294 
	C82.840248,104.755409 80.641808,105.423409 78.525932,106.292442 
	C72.198967,108.891075 68.818405,115.664185 61.657116,117.578262 
	C58.559742,118.406128 56.497459,122.808975 53.751064,125.357346 
	C52.055408,126.930748 48.912689,127.688477 48.257256,129.483414 
	C46.915520,133.157806 44.883831,134.719666 41.157494,135.134384 
	C39.757938,135.290131 38.470387,136.726135 37.196739,137.666458 
	C35.766438,138.722443 34.566044,140.458191 32.991817,140.882645 
	C28.030338,142.220352 24.464895,144.973618 22.101852,149.509079 
	C21.733891,150.215302 20.459549,151.008194 19.753082,150.887848 
	C15.382556,150.143356 13.203573,153.501587 10.389750,155.633804 
	C7.219573,158.036072 4.126568,160.540176 0.999998,163.000000 
	C1.000000,150.979111 1.000000,138.958206 1.348833,126.429756 
	C8.224329,121.524696 14.915724,117.349716 21.234699,112.671684 
	C28.632801,107.194748 35.703655,101.276031 42.929028,95.564850 
	C43.312935,95.261406 43.829399,95.132225 44.257408,94.877052 
	C50.300972,91.273880 56.689304,88.131187 62.298985,83.945366 
	C70.963249,77.480278 78.504852,69.605850 87.987694,64.088936 
	C92.706909,61.343399 96.491188,57.029224 101.104248,54.053909 
	C108.126694,49.524593 115.155418,45.057285 121.716896,39.849129 
	C127.812332,35.010899 134.139771,30.463350 140.408264,25.846498 
	C141.330276,25.167427 142.458344,24.468313 143.547165,24.363983 
	C150.845322,23.664680 154.692734,17.782948 159.830383,13.812901 
	C163.818542,10.731109 168.088318,8.010863 172.035919,4.881432 
	C173.067795,4.063432 173.365250,2.318972 174.000000,0.999999 
z"/>
<path fill="#F8F8F8" opacity="1.000000" stroke="none" 
	d="
M173.531342,0.999999 
	C173.365250,2.318972 173.067795,4.063432 172.035919,4.881432 
	C168.088318,8.010863 163.818542,10.731109 159.830383,13.812901 
	C154.692734,17.782948 150.845322,23.664680 143.547165,24.363983 
	C142.458344,24.468313 141.330276,25.167427 140.408264,25.846498 
	C134.139771,30.463350 127.812332,35.010899 121.716896,39.849129 
	C115.155418,45.057285 108.126694,49.524593 101.104248,54.053909 
	C96.491188,57.029224 92.706909,61.343399 87.987694,64.088936 
	C78.504852,69.605850 70.963249,77.480278 62.298985,83.945366 
	C56.689304,88.131187 50.300972,91.273880 44.257408,94.877052 
	C43.829399,95.132225 43.312935,95.261406 42.929028,95.564850 
	C35.703655,101.276031 28.632801,107.194748 21.234699,112.671684 
	C14.915724,117.349716 8.224329,121.524696 1.348833,125.961098 
	C1.000000,112.645775 1.000000,99.291542 1.361111,85.428139 
	C6.446568,82.536957 10.997517,80.441971 15.054566,76.395058 
	C21.146179,70.318657 28.917320,65.887604 36.133099,60.990925 
	C40.490662,58.033844 45.095673,55.425854 49.684734,52.829330 
	C55.633102,49.463699 59.121948,42.428776 66.711205,41.481453 
	C67.394203,41.396191 67.959076,40.436775 68.596779,39.904858 
	C73.498909,35.815933 77.572868,30.576414 84.378227,29.155922 
	C85.553619,28.910578 86.473694,27.226372 87.412270,26.122269 
	C88.368546,24.997345 88.965630,23.408712 90.128296,22.643602 
	C97.058235,18.083273 104.290054,13.959313 111.027321,9.139243 
	C113.848549,7.120845 115.704948,3.753861 118.000000,1.000001 
	C136.354233,1.000000 154.708450,1.000000 173.531342,0.999999 
z"/>
<path fill="#E7E6E6" opacity="1.000000" stroke="none" 
	d="
M305.000000,81.000000 
	C305.000000,95.354225 305.000000,109.708458 304.611511,124.531998 
	C298.598175,125.528900 295.414764,129.530197 291.968384,133.334183 
	C290.299927,135.175781 288.031525,137.655731 285.975128,137.713196 
	C281.933411,137.826096 279.600494,139.843887 277.085114,142.351212 
	C274.194916,145.232132 271.063721,147.871307 267.793091,150.836868 
	C265.257507,148.416138 263.024200,148.495926 261.282898,152.017960 
	C260.719971,153.156570 259.619415,154.145752 258.549805,154.897293 
	C253.970917,158.114670 249.220062,161.092346 244.704041,164.392929 
	C238.437653,168.972778 232.295303,173.724701 226.160034,178.480621 
	C223.038589,180.900299 220.048737,183.489746 216.530823,186.001938 
	C210.341476,186.001587 204.618027,185.902420 198.901367,186.056046 
	C196.918610,186.109314 194.952667,186.789230 192.541840,187.364136 
	C191.641495,189.134293 190.831009,190.711090 190.774979,192.314255 
	C190.522888,199.524933 190.484985,206.743103 190.072235,213.962311 
	C189.178787,213.978928 188.582962,213.991821 187.732178,213.765503 
	C183.648499,205.017700 179.819778,196.509094 176.339233,187.961777 
	C180.508026,185.584549 184.412811,183.367920 188.093246,180.826431 
	C189.079636,180.145294 189.381897,178.473495 190.425385,177.167450 
	C196.142609,177.914978 199.144180,175.539749 201.752686,170.889572 
	C207.013138,161.511749 213.066467,152.580856 218.686035,143.400299 
	C219.681320,141.774338 220.159348,139.831741 221.266663,138.024689 
	C223.160004,137.237534 224.844528,136.682648 226.124313,135.633881 
	C228.163666,133.962616 229.757080,131.726852 231.856964,130.154312 
	C235.397705,127.502762 239.301437,125.335922 242.841705,122.683800 
	C246.757492,119.750336 250.001694,115.424393 254.333939,113.674736 
	C259.197083,111.710678 262.885406,108.805031 266.867188,105.677765 
	C275.262756,99.083961 284.114502,93.046928 293.001282,87.114273 
	C296.709045,84.639038 300.983307,83.012459 305.000000,81.000000 
z"/>
<path fill="#ECECEC" opacity="1.000000" stroke="none" 
	d="
M1.000000,271.000000 
	C1.000000,259.312439 1.000000,247.624878 1.351354,235.428406 
	C7.973206,229.385056 16.311790,227.011520 22.271339,220.752014 
	C26.487089,216.324097 31.936638,212.971207 37.138599,209.607269 
	C43.577068,205.443741 50.329185,201.765244 56.757786,197.987686 
	C57.620235,196.438675 58.136677,194.189728 59.539402,193.211044 
	C67.331978,187.774109 75.352715,182.665085 83.266487,177.400436 
	C85.852295,175.680237 88.421623,173.920120 90.873123,172.016785 
	C94.261215,169.386261 97.478195,166.534103 100.888519,163.934341 
	C101.722275,163.298752 103.167313,163.505630 104.083595,162.930511 
	C107.715950,160.650574 112.104492,159.063309 113.458382,153.922607 
	C120.949669,153.914078 127.981865,154.008575 135.143524,154.309708 
	C135.498383,154.765259 135.773300,154.933044 136.284912,155.297546 
	C139.746414,160.689606 143.020767,165.803864 145.901581,170.944290 
	C143.985687,171.539474 142.250320,171.810898 140.974426,172.724228 
	C130.030823,180.557831 119.144104,188.472107 108.326073,196.478058 
	C107.257912,197.268570 106.762169,198.832565 105.596924,200.125824 
	C99.889740,200.267136 95.219490,201.798416 91.758743,206.060379 
	C90.450073,207.672012 89.223557,209.350357 87.701752,210.882431 
	C86.940994,210.511993 86.438080,210.257431 85.727173,209.733612 
	C81.362747,201.053345 70.959702,198.114029 62.881298,202.826599 
	C56.599655,206.491028 52.025311,217.475220 60.128235,227.946869 
	C58.538597,236.357559 49.848358,236.868744 45.581127,242.088181 
	C43.833519,244.225739 41.365303,245.854340 39.021385,247.407288 
	C34.269314,250.555695 29.102369,253.140564 24.629396,256.628387 
	C20.825823,259.594208 17.784914,263.530060 14.340158,266.970245 
	C13.554755,267.754639 12.575771,268.590546 11.548445,268.842590 
	C8.065533,269.697174 4.520997,270.300629 1.000000,271.000000 
z"/>
<path fill="#EBEBEB" opacity="1.000000" stroke="none" 
	d="
M305.000000,80.531342 
	C300.983307,83.012459 296.709045,84.639038 293.001282,87.114273 
	C284.114502,93.046928 275.262756,99.083961 266.867188,105.677765 
	C262.885406,108.805031 259.197083,111.710678 254.333939,113.674736 
	C250.001694,115.424393 246.757492,119.750336 242.841705,122.683800 
	C239.301437,125.335922 235.397705,127.502762 231.856964,130.154312 
	C229.757080,131.726852 228.163666,133.962616 226.124313,135.633881 
	C224.844528,136.682648 223.160004,137.237534 221.006149,137.819290 
	C215.309174,129.533585 210.263138,121.442627 205.493759,113.078873 
	C210.770355,105.054192 215.770309,97.302299 220.829285,89.944489 
	C221.160004,91.451157 221.431717,92.563744 222.049698,95.094254 
	C225.133575,87.432152 234.010437,88.454674 236.228973,81.622635 
	C236.380676,81.155441 238.096191,81.312035 238.987534,80.943916 
	C240.637619,80.262444 242.343063,79.590637 243.796021,78.583755 
	C246.316711,76.836945 248.642487,74.811501 251.086197,72.950455 
	C256.119446,69.117348 261.195679,65.340546 266.217468,61.492577 
	C269.836151,58.719730 273.204346,53.831512 277.020569,53.473698 
	C285.200653,52.706722 287.612854,43.428898 295.319183,42.859425 
	C295.621735,42.837067 295.869019,41.733242 296.099030,41.117264 
	C297.655029,36.950279 300.615631,35.240391 305.000000,36.000000 
	C305.000000,50.687561 305.000000,65.375122 305.000000,80.531342 
z"/>
<path fill="#EFEFEF" opacity="1.000000" stroke="none" 
	d="
M112.999283,154.025620 
	C112.104492,159.063309 107.715950,160.650574 104.083595,162.930511 
	C103.167313,163.505630 101.722275,163.298752 100.888519,163.934341 
	C97.478195,166.534103 94.261215,169.386261 90.873123,172.016785 
	C88.421623,173.920120 85.852295,175.680237 83.266487,177.400436 
	C75.352715,182.665085 67.331978,187.774109 59.539402,193.211044 
	C58.136677,194.189728 57.620235,196.438675 56.757786,197.987686 
	C50.329185,201.765244 43.577068,205.443741 37.138599,209.607269 
	C31.936638,212.971207 26.487089,216.324097 22.271339,220.752014 
	C16.311790,227.011520 7.973206,229.385056 1.351354,234.959747 
	C1.000000,221.645767 1.000000,208.291550 1.402549,194.468597 
	C3.107725,193.840454 4.712893,194.114014 5.663067,193.450150 
	C11.150794,189.615860 16.510727,185.595963 21.862320,181.570297 
	C28.257349,176.759720 34.554455,171.818054 40.982700,167.052856 
	C45.048435,164.038940 49.207546,161.137848 53.452057,158.382202 
	C57.165218,155.971512 61.218346,154.064926 64.829643,151.521561 
	C69.962608,147.906509 74.929573,144.034821 79.775398,140.039810 
	C83.443184,137.015991 86.810722,133.627960 90.578842,130.639450 
	C93.995659,135.905380 97.522438,140.743057 100.191368,146.015015 
	C102.967674,151.499100 106.377029,155.099640 112.999283,154.025620 
z"/>
<path fill="#FBFBFB" opacity="1.000000" stroke="none" 
	d="
M117.531342,1.000001 
	C115.704948,3.753861 113.848549,7.120845 111.027321,9.139243 
	C104.290054,13.959313 97.058235,18.083273 90.128296,22.643602 
	C88.965630,23.408712 88.368546,24.997345 87.412270,26.122269 
	C86.473694,27.226372 85.553619,28.910578 84.378227,29.155922 
	C77.572868,30.576414 73.498909,35.815933 68.596779,39.904858 
	C67.959076,40.436775 67.394203,41.396191 66.711205,41.481453 
	C59.121948,42.428776 55.633102,49.463699 49.684734,52.829330 
	C45.095673,55.425854 40.490662,58.033844 36.133099,60.990925 
	C28.917320,65.887604 21.146179,70.318657 15.054566,76.395058 
	C10.997517,80.441971 6.446568,82.536957 1.361111,84.959480 
	C1.000000,72.312439 1.000000,59.624878 1.399554,46.467758 
	C5.488778,45.326630 9.339213,45.127087 10.614566,40.365417 
	C10.918962,39.228920 12.801780,38.456421 14.039363,37.638706 
	C19.648386,33.932648 25.299955,30.290993 30.910669,26.587463 
	C39.403069,20.981791 48.031391,15.561465 56.272766,9.606779 
	C59.326954,7.400023 61.451492,3.906624 64.000000,1.000000 
	C81.687561,1.000000 99.375122,1.000000 117.531342,1.000001 
z"/>
<path fill="#EEEEEE" opacity="1.000000" stroke="none" 
	d="
M305.000000,35.531342 
	C300.615631,35.240391 297.655029,36.950279 296.099030,41.117264 
	C295.869019,41.733242 295.621735,42.837067 295.319183,42.859425 
	C287.612854,43.428898 285.200653,52.706722 277.020569,53.473698 
	C273.204346,53.831512 269.836151,58.719730 266.217468,61.492577 
	C261.195679,65.340546 256.119446,69.117348 251.086197,72.950455 
	C248.642487,74.811501 246.316711,76.836945 243.796021,78.583755 
	C242.343063,79.590637 240.637619,80.262444 238.987534,80.943916 
	C238.096191,81.312035 236.380676,81.155441 236.228973,81.622635 
	C234.010437,88.454674 225.133575,87.432152 222.049698,95.094254 
	C221.431717,92.563744 221.160004,91.451157 220.883026,89.596848 
	C220.131454,87.096184 219.576401,85.223045 218.605881,83.598000 
	C214.316925,76.416473 209.908432,69.306335 205.942627,62.123817 
	C209.827515,60.252922 213.416336,58.599003 216.774002,56.563763 
	C221.661484,53.601234 226.579926,50.623871 231.120560,47.173065 
	C235.940125,43.510281 239.771500,37.284298 245.051880,35.801907 
	C252.075027,33.830250 255.612793,28.175200 261.245178,24.966141 
	C267.584534,21.354307 272.935211,16.047617 278.948181,11.807523 
	C282.653595,9.194633 286.886627,7.339149 290.680206,4.836549 
	C291.806824,4.093322 292.245880,2.307887 293.000000,1.000000 
	C296.962372,1.000000 300.924774,1.000000 305.000000,1.000000 
	C305.000000,12.354026 305.000000,23.708355 305.000000,35.531342 
z"/>
<path fill="#E9E8E8" opacity="1.000000" stroke="none" 
	d="
M1.000000,271.468658 
	C4.520997,270.300629 8.065533,269.697174 11.548445,268.842590 
	C12.575771,268.590546 13.554755,267.754639 14.340158,266.970245 
	C17.784914,263.530060 20.825823,259.594208 24.629396,256.628387 
	C29.102369,253.140564 34.269314,250.555695 39.021385,247.407288 
	C41.365303,245.854340 43.833519,244.225739 45.581127,242.088181 
	C49.848358,236.868744 58.538597,236.357559 60.461929,228.091721 
	C66.749756,232.159302 73.047966,232.952530 79.588997,229.557877 
	C83.646194,227.452286 85.938873,224.092606 85.802834,217.383301 
	C82.104553,219.442566 79.255074,220.586029 76.950584,222.415848 
	C73.458435,225.188721 68.626335,225.047943 65.852097,221.584335 
	C63.138203,218.196060 63.416332,212.546539 66.439148,209.659805 
	C69.433517,206.800232 73.983795,207.135742 77.523674,210.477112 
	C80.185432,212.989594 83.890617,212.780685 85.935165,210.002869 
	C86.438080,210.257431 86.940994,210.511993 87.740463,211.337036 
	C87.792580,225.842194 93.128647,231.509903 106.992546,232.418304 
	C105.640648,234.986404 104.768440,237.792999 102.864784,239.272232 
	C96.484734,244.229904 89.830818,248.856537 83.085670,253.313141 
	C80.111885,255.277954 74.892303,255.750534 73.791412,258.260101 
	C71.223846,264.113007 65.616318,264.191711 61.525784,266.995270 
	C60.161133,267.930603 58.475986,268.706696 57.605385,270.003906 
	C52.366875,277.809326 41.860973,279.258148 36.890507,287.327332 
	C36.739941,287.571747 36.327225,287.794800 36.038067,287.793152 
	C29.486710,287.755768 27.499979,294.916168 21.984333,296.704346 
	C20.060844,297.327972 18.646734,299.522736 17.000000,301.000000 
	C11.717927,301.000000 6.435854,301.000000 1.000000,301.000000 
	C1.000000,291.312866 1.000000,281.625092 1.000000,271.468658 
z"/>
<path fill="#E6E6E6" opacity="1.000000" stroke="none" 
	d="
M17.468658,301.000000 
	C18.646734,299.522736 20.060844,297.327972 21.984333,296.704346 
	C27.499979,294.916168 29.486710,287.755768 36.038067,287.793152 
	C36.327225,287.794800 36.739941,287.571747 36.890507,287.327332 
	C41.860973,279.258148 52.366875,277.809326 57.605385,270.003906 
	C58.475986,268.706696 60.161133,267.930603 61.525784,266.995270 
	C65.616318,264.191711 71.223846,264.113007 73.791412,258.260101 
	C74.892303,255.750534 80.111885,255.277954 83.085670,253.313141 
	C89.830818,248.856537 96.484734,244.229904 102.864784,239.272232 
	C104.768440,237.792999 105.640648,234.986404 107.315079,232.243103 
	C112.835037,230.625244 116.452080,227.492767 119.433884,222.999634 
	C120.913910,222.999573 121.990379,223.000366 123.310181,223.231750 
	C128.682510,231.773560 136.238739,234.580353 145.554382,232.045135 
	C148.327881,231.290344 151.391434,231.673996 154.266632,231.199753 
	C157.124527,230.728378 160.968399,230.708145 162.462982,228.902939 
	C164.313507,226.667862 165.757141,225.648621 168.476379,225.797073 
	C171.132690,225.942078 173.843857,226.125687 176.457809,225.763947 
	C180.570847,225.194794 182.696487,226.951263 183.550629,230.760056 
	C182.067017,231.905777 180.583405,233.051514 178.651917,234.565048 
	C176.751831,235.267670 175.299637,235.602478 173.650482,236.057587 
	C173.205200,236.399002 173.092010,236.675476 173.038300,237.355042 
	C173.068893,238.158752 173.175171,238.614700 173.160309,239.025055 
	C173.039154,238.979462 172.786880,238.921280 172.530518,238.966797 
	C172.103836,239.045898 171.933548,239.079468 171.593262,239.052979 
	C171.423264,238.992920 171.118759,238.799759 171.155823,238.421555 
	C171.064362,237.108521 170.935837,236.173676 170.950562,236.280807 
	C168.615829,235.895935 166.845734,235.430756 165.067383,235.396744 
	C164.361237,235.383224 163.636795,236.325699 162.554718,237.000305 
	C158.525558,235.945374 154.877167,232.540466 150.935242,237.051422 
	C150.695541,237.009689 150.212158,236.976379 150.005997,236.650635 
	C144.008224,233.430130 141.209412,235.209457 140.535095,242.044891 
	C133.182968,247.447220 126.180664,252.823624 119.145790,258.157074 
	C115.360130,261.027161 111.590828,263.928009 107.685242,266.628571 
	C101.871017,270.648865 95.827133,274.343719 90.094574,278.473541 
	C84.027336,282.844513 78.577133,288.198944 72.153572,291.903320 
	C67.933006,294.337280 64.409386,296.862274 62.000000,301.000000 
	C47.312439,301.000000 32.624878,301.000000 17.468658,301.000000 
z"/>
<path fill="#F2F2F2" opacity="1.000000" stroke="none" 
	d="
M90.311874,130.402023 
	C86.810722,133.627960 83.443184,137.015991 79.775398,140.039810 
	C74.929573,144.034821 69.962608,147.906509 64.829643,151.521561 
	C61.218346,154.064926 57.165218,155.971512 53.452057,158.382202 
	C49.207546,161.137848 45.048435,164.038940 40.982700,167.052856 
	C34.554455,171.818054 28.257349,176.759720 21.862320,181.570297 
	C16.510727,185.595963 11.150794,189.615860 5.663067,193.450150 
	C4.712893,194.114014 3.107725,193.840454 1.402549,193.999939 
	C1.000000,183.979111 1.000000,173.958206 0.999998,163.468658 
	C4.126568,160.540176 7.219573,158.036072 10.389750,155.633804 
	C13.203573,153.501587 15.382556,150.143356 19.753082,150.887848 
	C20.459549,151.008194 21.733891,150.215302 22.101852,149.509079 
	C24.464895,144.973618 28.030338,142.220352 32.991817,140.882645 
	C34.566044,140.458191 35.766438,138.722443 37.196739,137.666458 
	C38.470387,136.726135 39.757938,135.290131 41.157494,135.134384 
	C44.883831,134.719666 46.915520,133.157806 48.257256,129.483414 
	C48.912689,127.688477 52.055408,126.930748 53.751064,125.357346 
	C56.497459,122.808975 58.559742,118.406128 61.657116,117.578262 
	C68.818405,115.664185 72.198967,108.891075 78.525932,106.292442 
	C80.641808,105.423409 82.840248,104.755409 85.319740,104.321625 
	C84.779259,106.070320 84.119461,107.674324 83.022392,108.880653 
	C80.023872,112.177765 80.486160,115.082542 83.021477,118.522736 
	C85.767929,122.249382 87.907585,126.423218 90.311874,130.402023 
z"/>
<path fill="#F1F1F1" opacity="1.000000" stroke="none" 
	d="
M292.531342,1.000000 
	C292.245880,2.307887 291.806824,4.093322 290.680206,4.836549 
	C286.886627,7.339149 282.653595,9.194633 278.948181,11.807523 
	C272.935211,16.047617 267.584534,21.354307 261.245178,24.966141 
	C255.612793,28.175200 252.075027,33.830250 245.051880,35.801907 
	C239.771500,37.284298 235.940125,43.510281 231.120560,47.173065 
	C226.579926,50.623871 221.661484,53.601234 216.774002,56.563763 
	C213.416336,58.599003 209.827515,60.252922 205.689453,61.916336 
	C203.636810,59.520649 201.927826,57.417599 200.906250,55.021473 
	C199.209396,51.041512 196.435913,49.971161 192.307983,50.174477 
	C186.888092,50.441422 181.436569,50.066303 175.998657,49.967316 
	C177.458603,47.990227 178.505478,45.030411 180.452469,44.212021 
	C187.571808,41.219486 193.092590,36.563141 198.686707,31.289665 
	C204.339157,25.961214 211.806274,22.557606 218.481384,18.315422 
	C218.617584,18.228859 218.824036,18.238541 218.940582,18.137451 
	C224.316910,13.473954 229.825012,9.062346 236.507019,6.252748 
	C237.461624,5.851359 237.523453,3.326692 237.999237,1.392351 
	C256.020905,1.000000 274.041779,1.000000 292.531342,1.000000 
z"/>
<path fill="#DCDCDC" opacity="1.000000" stroke="none" 
	d="
M305.000000,224.000000 
	C305.000000,234.020889 305.000000,244.041794 304.635193,254.539948 
	C299.436584,258.247589 294.649292,261.550476 289.756775,264.689301 
	C284.143402,268.290588 278.206146,271.428589 272.820374,275.334198 
	C262.797211,282.602722 253.046600,290.249420 243.270294,297.851501 
	C242.497833,298.452148 242.407394,299.929901 242.000000,301.000000 
	C229.312439,301.000000 216.624878,301.000000 203.474396,300.629395 
	C205.503296,296.702271 207.977448,293.133026 210.515625,289.609863 
	C210.756393,289.275696 211.415665,289.264801 211.851410,289.045685 
	C214.306824,287.810822 216.636047,286.174561 219.224762,285.383453 
	C227.042419,282.994324 230.519211,274.868591 238.373505,271.991058 
	C247.024139,268.821747 252.136887,259.939575 261.049225,255.942490 
	C269.049896,252.354294 275.753082,245.813080 282.906494,240.412750 
	C289.867981,235.157288 296.668701,229.689072 303.565613,224.347321 
	C303.920532,224.072464 304.516327,224.108627 305.000000,224.000000 
z"/>
<path fill="#E4E4E4" opacity="1.000000" stroke="none" 
	d="
M62.468658,301.000000 
	C64.409386,296.862274 67.933006,294.337280 72.153572,291.903320 
	C78.577133,288.198944 84.027336,282.844513 90.094574,278.473541 
	C95.827133,274.343719 101.871017,270.648865 107.685242,266.628571 
	C111.590828,263.928009 115.360130,261.027161 119.145790,258.157074 
	C126.180664,252.823624 133.182968,247.447220 140.742401,242.326920 
	C144.985199,246.770248 146.883865,246.857254 150.369995,242.989777 
	C150.570160,243.007324 150.972000,243.011948 151.256256,243.204086 
	C154.838699,246.911163 157.960541,246.266617 161.240875,242.999451 
	C161.869675,243.008469 162.228668,243.014450 162.691147,243.381012 
	C166.954315,246.067368 163.566483,240.546326 164.446045,240.669983 
	C167.376465,242.579010 169.276611,243.816864 171.495972,245.039154 
	C172.242218,245.012573 172.669296,245.001541 173.366699,245.137299 
	C174.425827,245.508774 175.214615,245.733475 176.003387,245.958160 
	C169.960449,250.310562 163.924927,254.673370 157.867432,259.005432 
	C156.821945,259.753143 155.230042,260.107910 154.660873,261.090393 
	C150.923630,267.541687 144.241409,269.928528 138.328033,273.434692 
	C135.518646,275.100464 132.995270,277.246490 130.329819,279.157532 
	C125.589638,282.556122 120.843704,285.946747 116.092850,289.330444 
	C112.760872,291.703583 109.335907,293.956421 106.118729,296.475342 
	C104.869164,297.453735 104.076584,299.015778 103.037918,300.655975 
	C89.645775,301.000000 76.291542,301.000000 62.468658,301.000000 
z"/>
<path fill="#DFDEDE" opacity="1.000000" stroke="none" 
	d="
M305.000000,223.532394 
	C304.516327,224.108627 303.920532,224.072464 303.565613,224.347321 
	C296.668701,229.689072 289.867981,235.157288 282.906494,240.412750 
	C275.753082,245.813080 269.049896,252.354294 261.049225,255.942490 
	C252.136887,259.939575 247.024139,268.821747 238.373505,271.991058 
	C230.519211,274.868591 227.042419,282.994324 219.224762,285.383453 
	C216.636047,286.174561 214.306824,287.810822 211.851410,289.045685 
	C211.415665,289.264801 210.756393,289.275696 210.515625,289.609863 
	C207.977448,293.133026 205.503296,296.702271 203.005737,300.629395 
	C193.979111,301.000000 184.958206,301.000000 175.468658,301.000000 
	C176.269516,299.680695 177.559113,297.235260 178.804672,297.257477 
	C182.263947,297.319244 183.428207,294.808472 185.578384,293.129120 
	C191.225723,288.718445 197.347794,284.919739 203.214111,280.782715 
	C204.904083,279.590881 207.174622,278.363129 207.777069,276.656860 
	C209.302032,272.337708 212.653824,270.601562 216.357864,269.043884 
	C219.656174,267.656830 224.408859,267.223755 225.949203,264.761566 
	C228.130615,261.274658 231.034851,259.468262 234.037064,257.310516 
	C238.033920,254.437912 241.953506,251.452133 245.801788,248.383911 
	C246.463379,247.856461 246.604675,246.676453 247.138184,245.235077 
	C247.492035,244.423386 247.718216,244.198868 247.968597,243.998718 
	C252.069214,241.825241 256.180878,239.672241 260.265808,237.469666 
	C262.331604,236.355804 264.365601,235.180054 266.382111,233.978821 
	C267.583038,233.263428 268.812958,232.551437 269.873444,231.653290 
	C274.620056,227.633331 279.269897,223.498169 284.055756,219.526428 
	C284.997498,218.744888 286.394409,218.071686 287.566742,218.094711 
	C290.512939,218.152573 292.802368,217.671356 293.536926,214.317688 
	C293.648010,213.810577 294.441589,213.401642 294.985474,213.049149 
	C298.079590,211.043762 301.193756,209.069290 304.650574,207.042160 
	C305.000000,212.354935 305.000000,217.709854 305.000000,223.532394 
z"/>
<path fill="#E4E4E4" opacity="1.000000" stroke="none" 
	d="
M216.999390,186.002441 
	C220.048737,183.489746 223.038589,180.900299 226.160034,178.480621 
	C232.295303,173.724701 238.437653,168.972778 244.704041,164.392929 
	C249.220062,161.092346 253.970917,158.114670 258.549805,154.897293 
	C259.619415,154.145752 260.719971,153.156570 261.282898,152.017960 
	C263.024200,148.495926 265.257507,148.416138 267.793091,150.836868 
	C271.063721,147.871307 274.194916,145.232132 277.085114,142.351212 
	C279.600494,139.843887 281.933411,137.826096 285.975128,137.713196 
	C288.031525,137.655731 290.299927,135.175781 291.968384,133.334183 
	C295.414764,129.530197 298.598175,125.528900 304.611511,125.000656 
	C305.000000,134.020889 305.000000,143.041794 305.000000,152.531342 
	C303.054443,154.638474 301.251007,156.496674 299.132019,157.866943 
	C295.410736,160.273346 291.136292,161.938492 287.736420,164.704330 
	C280.268433,170.779633 272.145111,175.707535 263.832214,180.482559 
	C260.389313,182.460205 257.907776,186.051010 254.764175,188.634567 
	C253.049149,190.044052 250.863937,190.881424 248.428223,191.596222 
	C247.977219,190.143372 247.988785,189.071152 247.908630,187.604187 
	C247.151993,186.815628 246.491028,186.087219 245.821564,186.079315 
	C238.408417,185.991821 230.993011,185.959610 223.581055,186.082886 
	C222.674866,186.097961 221.785233,187.109177 220.905884,187.787262 
	C220.923843,187.915771 220.668411,187.961639 220.668411,187.961639 
	C219.952393,187.983490 219.236389,188.005341 217.902359,187.905182 
	C217.162506,187.628555 217.040680,187.473953 216.952118,187.101562 
	C216.997513,186.590103 217.002182,186.296326 216.999390,186.002441 
z"/>
<path fill="#D9D9D9" opacity="1.000000" stroke="none" 
	d="
M242.468658,301.000000 
	C242.407394,299.929901 242.497833,298.452148 243.270294,297.851501 
	C253.046600,290.249420 262.797211,282.602722 272.820374,275.334198 
	C278.206146,271.428589 284.143402,268.290588 289.756775,264.689301 
	C294.649292,261.550476 299.436584,258.247589 304.635193,255.008606 
	C305.000000,270.271545 305.000000,285.543060 305.000000,301.000000 
	C284.312805,301.000000 263.625061,301.000000 242.468658,301.000000 
z"/>
<path fill="#FEFEFE" opacity="1.000000" stroke="none" 
	d="
M63.531342,1.000000 
	C61.451492,3.906624 59.326954,7.400023 56.272766,9.606779 
	C48.031391,15.561465 39.403069,20.981791 30.910669,26.587463 
	C25.299955,30.290993 19.648386,33.932648 14.039363,37.638706 
	C12.801780,38.456421 10.918962,39.228920 10.614566,40.365417 
	C9.339213,45.127087 5.488778,45.326630 1.399554,45.999100 
	C1.000000,31.061022 1.000000,16.122042 1.000000,1.000000 
	C21.687201,1.000000 42.374943,1.000000 63.531342,1.000000 
z"/>
<path fill="#3C393A" opacity="1.000000" stroke="none" 
	d="
M216.918839,187.319351 
	C217.040680,187.473953 217.162506,187.628555 217.544617,187.922577 
	C217.804871,191.007019 217.804871,193.952026 217.804871,197.440247 
	C212.306747,197.440247 207.410416,197.440247 202.225586,197.440247 
	C202.225586,200.738678 202.225586,203.492233 202.225586,206.846329 
	C206.547318,206.846329 210.923859,206.846329 215.611618,206.846329 
	C215.611618,210.342056 215.611618,213.255676 215.611618,216.784256 
	C211.336380,216.784256 206.965607,216.784256 202.078018,216.784256 
	C202.078018,221.753220 202.078018,226.147049 202.078018,231.070480 
	C195.828522,231.070480 190.096680,231.070480 183.957733,230.915268 
	C182.696487,226.951263 180.570847,225.194794 176.457809,225.763947 
	C173.843857,226.125687 171.132690,225.942078 168.476379,225.797073 
	C165.757141,225.648621 164.313507,226.667862 162.462982,228.902939 
	C160.968399,230.708145 157.124527,230.728378 154.266632,231.199753 
	C151.391434,231.673996 148.327881,231.290344 145.554382,232.045135 
	C136.238739,234.580353 128.682510,231.773560 123.311066,222.856018 
	C122.963661,220.899612 122.858711,219.549545 122.734489,217.951584 
	C126.536179,217.951584 129.777298,217.951584 133.163132,218.286835 
	C135.836746,222.999786 139.905548,222.354904 143.773300,221.511688 
	C144.886292,221.269058 146.551010,219.411148 146.409775,218.547882 
	C146.205673,217.300537 144.780746,215.753983 143.525101,215.293167 
	C141.583496,214.580643 139.344818,214.677628 136.885941,214.306091 
	C135.405304,213.958817 134.248962,213.814407 133.140015,213.501877 
	C126.734337,211.696625 123.818962,208.497055 123.189278,202.657822 
	C122.516449,196.418533 124.954704,191.676590 130.745132,188.893417 
	C137.110870,185.833679 143.576569,185.923782 149.748901,189.512619 
	C154.069687,192.024918 156.565918,195.705048 155.499390,200.977783 
	C150.925217,200.871841 146.799072,201.849716 143.293564,197.867599 
	C142.197159,196.622147 138.086777,197.686874 135.501083,198.302902 
	C134.717484,198.489594 133.738358,201.664139 134.010742,201.860794 
	C135.878494,203.209320 138.034668,204.173828 140.145844,205.159454 
	C140.717178,205.426178 141.453537,205.338562 142.113907,205.415649 
	C148.434280,206.153488 154.492477,207.386108 157.776123,214.658554 
	C159.185059,211.287949 160.263840,208.707169 161.580215,205.886414 
	C162.879471,203.097641 163.941132,200.548813 165.241364,197.777390 
	C165.767395,196.744202 166.054840,195.933624 166.585785,194.879654 
	C167.453903,193.330597 168.209396,192.070068 168.678391,190.710709 
	C170.037323,186.771927 172.384705,185.751572 175.991043,188.000504 
	C179.819778,196.509094 183.648499,205.017700 187.753510,214.130127 
	C188.629303,215.823853 189.228790,216.913727 189.828278,218.003601 
	C190.137466,217.872284 190.446655,217.740967 190.755859,217.609650 
	C190.627182,216.392624 190.498505,215.175598 190.369843,213.958572 
	C190.484985,206.743103 190.522888,199.524933 190.774979,192.314255 
	C190.831009,190.711090 191.641495,189.134293 192.989655,187.512573 
	C201.236404,187.604065 208.598114,187.728348 216.035767,188.027512 
	C216.416550,188.197922 216.721405,188.193420 216.942947,187.978516 
	C216.859650,187.768097 216.918839,187.319351 216.918839,187.319351 
M176.575455,213.309357 
	C175.457657,210.810669 174.339859,208.311996 172.751480,204.761368 
	C170.923248,209.096252 169.567993,212.309692 167.951645,216.142181 
	C170.596375,216.142181 172.446014,216.379318 174.189163,216.051041 
	C175.194839,215.861649 176.028534,214.759048 176.575455,213.309357 
z"/>
<path fill="#3A3738" opacity="1.000000" stroke="none" 
	d="
M248.000351,187.998917 
	C247.988785,189.071152 247.977219,190.143372 248.068146,191.604858 
	C247.985229,193.607773 247.799805,195.221436 247.559845,197.309906 
	C242.487015,197.309906 237.575043,197.309906 232.175201,197.309906 
	C232.059479,199.505829 231.969070,201.221512 231.845566,203.565323 
	C236.703445,203.565323 241.235046,203.565323 246.099106,203.565323 
	C246.099106,207.046646 246.099106,209.932266 246.099106,213.458862 
	C241.513657,213.458862 236.980804,213.458862 232.153992,213.458862 
	C232.153992,216.309769 232.153992,218.529251 232.153992,221.360809 
	C237.482910,221.360809 242.694229,221.360809 248.096222,221.360809 
	C248.096222,224.881668 248.096222,227.793396 248.096222,231.261765 
	C241.927017,231.261765 235.996429,231.261765 229.205627,231.221329 
	C227.519333,231.236450 226.693253,231.292007 225.867157,231.347565 
	C224.383606,231.254898 222.900040,231.162247 220.752884,231.028137 
	C220.752884,217.302261 220.752884,203.615005 221.093262,189.337189 
	C221.628967,188.447433 221.824295,188.148224 222.474640,187.730988 
	C230.606796,187.691574 238.283920,187.770203 246.042862,188.024399 
	C246.414047,188.142593 246.703415,188.085220 247.243408,187.976730 
	C247.662827,187.950043 247.831589,187.974487 248.000351,187.998917 
z"/>
<path fill="#F09A58" opacity="1.000000" stroke="none" 
	d="
M200.064438,244.470200 
	C200.025879,242.359085 199.987335,240.247955 199.956543,237.325272 
	C199.975754,236.028717 199.987228,235.543732 199.998688,235.058746 
	C203.504807,234.994873 207.043304,234.627609 210.503220,234.996765 
	C212.201416,235.177963 213.753860,236.725189 215.659012,238.275467 
	C215.594696,240.584198 215.243622,242.271698 214.892548,243.959183 
	C208.251846,247.638519 205.482819,246.172028 202.965637,237.913681 
	C202.659378,239.350052 202.484985,240.832443 202.004822,242.208099 
	C201.626083,243.293152 200.870972,244.246841 200.157745,244.879196 
	C200.032440,244.499527 200.064438,244.470200 200.064438,244.470200 
M213.753784,240.578445 
	C213.312500,237.711105 211.745758,236.158173 209.014526,237.700424 
	C208.145386,238.191177 207.498795,240.932083 208.057755,241.750793 
	C209.791534,244.290298 211.903122,243.725800 213.753784,240.578445 
z"/>
<path fill="#F09F62" opacity="1.000000" stroke="none" 
	d="
M176.350876,245.891861 
	C175.214615,245.733475 174.425827,245.508774 173.342545,244.770935 
	C172.396133,243.558197 171.744232,242.858612 171.049896,241.740616 
	C171.044556,240.481400 171.081650,239.640579 171.118759,238.799759 
	C171.118759,238.799759 171.423264,238.992920 171.712738,239.287796 
	C172.263763,239.362213 172.525330,239.141754 172.786896,238.921295 
	C172.786880,238.921280 173.039154,238.979462 173.432892,238.971375 
	C176.915848,239.492432 179.438919,239.069733 179.974777,235.306229 
	C180.868729,235.337967 181.762695,235.369705 182.540894,235.969971 
	C182.685287,238.406036 182.945435,240.273560 183.205597,242.141083 
	C184.248795,242.473251 185.291992,242.805420 186.669922,243.413284 
	C187.004639,244.110138 187.004608,244.531296 187.004593,244.952454 
	C185.788025,245.195267 184.571472,245.438080 183.060822,245.175629 
	C182.479813,244.453857 182.192902,244.237350 181.905991,244.020813 
	C180.170105,244.622406 178.434219,245.223984 176.350876,245.891861 
z"/>
<path fill="#F09956" opacity="1.000000" stroke="none" 
	d="
M236.948181,244.290222 
	C234.608002,244.183426 232.572189,244.291077 229.592514,244.448639 
	C231.011917,241.182846 232.407867,237.970963 233.803833,234.759079 
	C234.323181,234.729797 234.842514,234.700516 235.361862,234.671234 
	C236.785507,237.697952 238.209167,240.724670 239.632812,243.751389 
	C238.839401,244.002472 238.045975,244.253571 236.948181,244.290222 
z"/>
<path fill="#F09A58" opacity="1.000000" stroke="none" 
	d="
M247.981812,243.624634 
	C247.718216,244.198868 247.492035,244.423386 247.146210,244.864075 
	C245.475052,245.153290 243.947723,245.250702 242.420395,245.348114 
	C242.401855,244.581787 242.383331,243.815475 242.998108,243.067581 
	C243.958633,242.853653 244.285858,242.621307 244.613083,242.388977 
	C244.093170,242.136032 243.573242,241.883087 243.053329,241.630127 
	C242.516876,239.870972 241.255844,237.892761 241.698257,236.429581 
	C241.994034,235.451294 244.711594,235.205231 246.345413,234.631500 
	C246.547119,235.094482 246.748810,235.557465 246.950516,236.020447 
	C246.058304,236.642456 245.166077,237.264450 244.466095,237.752426 
	C245.646835,239.592056 246.820923,241.421326 247.981812,243.624634 
z"/>
<path fill="#F19853" opacity="1.000000" stroke="none" 
	d="
M199.673218,244.324493 
	C200.064438,244.470200 200.032440,244.499527 200.050018,244.510742 
	C197.182129,244.455688 193.720306,247.587204 191.689758,242.142456 
	C191.835403,239.196320 191.940063,237.112350 192.044739,235.028381 
	C192.974167,237.403961 193.903610,239.779541 195.068161,242.756088 
	C195.929520,243.046906 197.605759,243.612854 199.673218,244.324493 
z"/>
<path fill="#F19B5A" opacity="1.000000" stroke="none" 
	d="
M179.729218,235.207062 
	C179.438919,239.069733 176.915848,239.492432 173.554047,239.016968 
	C173.175171,238.614700 173.068893,238.158752 173.259796,237.336670 
	C173.653793,236.626114 173.750626,236.281708 173.847443,235.937286 
	C175.299637,235.602478 176.751831,235.267670 178.599243,234.918945 
	C179.157516,234.972641 179.320602,235.040268 179.729218,235.207062 
z"/>
<path fill="#F38D3D" opacity="1.000000" stroke="none" 
	d="
M223.778748,238.885117 
	C223.420593,240.112946 223.062424,241.340759 222.175888,242.471588 
	C221.015686,242.887253 220.383850,243.399933 219.752014,243.912628 
	C219.162140,244.112366 218.572250,244.312103 217.938324,243.825912 
	C217.862762,241.093140 217.831223,239.046295 217.799683,236.999466 
	C217.799683,236.999466 217.947968,236.529968 218.259857,236.421021 
	C218.780273,236.614700 218.988800,236.917297 219.181412,237.544342 
	C220.173630,238.269135 221.181763,238.669510 222.589294,239.042480 
	C223.252029,238.971771 223.515381,238.928436 223.778748,238.885117 
z"/>
<path fill="#F19B5A" opacity="1.000000" stroke="none" 
	d="
M187.304047,244.870773 
	C187.004608,244.531296 187.004639,244.110138 187.010223,243.373291 
	C187.707367,240.419708 188.398972,237.781845 189.516022,235.550537 
	C189.983383,237.982071 190.025284,240.007019 190.067184,242.031982 
	C189.245941,242.951019 188.424713,243.870056 187.304047,244.870773 
z"/>
<path fill="#F09F62" opacity="1.000000" stroke="none" 
	d="
M223.903259,238.576523 
	C223.515381,238.928436 223.252029,238.971771 222.527618,238.684036 
	C221.110138,237.975281 220.153748,237.597580 219.197342,237.219894 
	C218.988800,236.917297 218.780273,236.614700 218.326233,236.183960 
	C220.876450,234.606506 223.610764,233.322281 223.903259,238.576523 
z"/>
<path fill="#DFDEDE" opacity="1.000000" stroke="none" 
	d="
M217.509552,237.036896 
	C217.831223,239.046295 217.862762,241.093140 217.814056,243.571930 
	C217.023987,243.997437 216.314133,243.990997 215.248413,243.971863 
	C215.243622,242.271698 215.594696,240.584198 215.930771,238.520721 
	C216.350327,237.787949 216.784882,237.431152 217.509552,237.036896 
z"/>
<path fill="#E7CBB7" opacity="1.000000" stroke="none" 
	d="
M190.305176,242.028870 
	C190.025284,240.007019 189.983383,237.982071 189.899994,235.528259 
	C190.344162,235.072083 190.829819,235.044754 191.680115,235.022888 
	C191.940063,237.112350 191.835403,239.196320 191.606262,241.716156 
	C191.170532,242.097916 190.857651,242.055832 190.305176,242.028870 
z"/>
<path fill="#B5A89F" opacity="1.000000" stroke="none" 
	d="
M225.892151,231.678162 
	C226.693253,231.292007 227.519333,231.236450 228.751068,231.280365 
	C228.607590,232.206329 228.058472,233.032806 226.997040,233.965118 
	C226.314453,234.044876 226.144165,234.018845 225.973892,233.992798 
	C225.954971,233.331467 225.936050,232.670120 225.892151,231.678162 
z"/>
<path fill="#F09956" opacity="1.000000" stroke="none" 
	d="
M199.661926,235.013489 
	C199.987228,235.543732 199.975754,236.028717 199.937057,236.877502 
	C199.118942,236.847549 198.328033,236.453781 197.537140,236.059998 
	C198.133148,235.696091 198.729141,235.332169 199.661926,235.013489 
z"/>
<path fill="#F19B5A" opacity="1.000000" stroke="none" 
	d="
M183.186905,241.698227 
	C182.945435,240.273560 182.685287,238.406036 182.690735,236.280518 
	C183.026962,237.766800 183.097595,239.511078 183.186905,241.698227 
z"/>
<path fill="#DFDEDE" opacity="1.000000" stroke="none" 
	d="
M225.769882,234.157806 
	C226.144165,234.018845 226.314453,234.044876 226.737549,234.124207 
	C226.692200,234.644073 226.394028,235.110657 226.095856,235.577240 
	C225.919189,235.159088 225.742523,234.740952 225.769882,234.157806 
z"/>
<path fill="#DFDEDE" opacity="1.000000" stroke="none" 
	d="
M220.084763,243.917297 
	C220.383850,243.399933 221.015686,242.887253 221.837234,242.655365 
	C221.490479,243.264755 220.953995,243.593369 220.084763,243.917297 
z"/>
<path fill="#DFDEDE" opacity="1.000000" stroke="none" 
	d="
M243.032745,241.950363 
	C243.573242,241.883087 244.093170,242.136032 244.613083,242.388977 
	C244.285858,242.621307 243.958633,242.853653 243.315689,242.999146 
	C243.004028,242.698395 243.008087,242.484497 243.032745,241.950363 
z"/>
<path fill="#F19B5A" opacity="1.000000" stroke="none" 
	d="
M182.000916,244.277496 
	C182.192902,244.237350 182.479813,244.453857 182.862000,244.929077 
	C182.670135,244.969894 182.382980,244.752014 182.000916,244.277496 
z"/>
<path fill="#2D292B" opacity="1.000000" stroke="none" 
	d="
M222.019623,187.849030 
	C221.824295,188.148224 221.628967,188.447433 221.197098,188.878891 
	C220.893326,188.841370 220.826126,188.671600 220.713669,188.231750 
	C220.668411,187.961639 220.923843,187.915771 221.195770,187.793396 
	C221.651688,187.730362 221.835648,187.789688 222.019623,187.849030 
z"/>
<path fill="#314A70" opacity="1.000000" stroke="none" 
	d="
M90.578842,130.639450 
	C87.907585,126.423218 85.767929,122.249382 83.021477,118.522736 
	C80.486160,115.082542 80.023872,112.177765 83.022392,108.880653 
	C84.119461,107.674324 84.779259,106.070320 85.697090,104.318405 
	C90.019180,97.124374 94.428810,90.344948 98.501076,83.368599 
	C101.899513,77.546600 105.156128,72.559860 113.431755,73.609779 
	C120.278679,74.478447 127.320587,73.810135 134.658432,74.270721 
	C131.009201,81.150894 126.977631,87.583176 122.535797,93.963959 
	C118.670357,93.117241 116.596046,94.642441 114.938179,97.638130 
	C111.889885,103.146301 106.093369,108.462158 106.030098,113.911438 
	C105.969597,119.121315 111.922249,124.300835 114.889511,129.682465 
	C116.761162,133.076996 119.146835,134.551651 123.394440,133.733643 
	C131.599854,133.751236 139.336914,133.701523 147.545135,133.672333 
	C154.304581,133.619598 161.674866,135.551666 166.575943,132.907288 
	C171.446472,130.279388 173.850647,123.060760 177.298615,117.830391 
	C178.117584,116.588074 178.785934,115.246460 179.803680,114.093872 
	C184.178589,120.825516 188.273361,127.413803 192.163544,134.297394 
	C187.546906,141.377121 183.134857,148.161560 178.369202,155.141571 
	C171.888458,154.967941 165.765762,154.442245 159.633087,154.268906 
	C151.861603,154.049240 144.082001,154.115906 135.981018,154.013535 
	C135.442093,154.013016 135.228073,154.058044 135.014053,154.103058 
	C127.981865,154.008575 120.949669,153.914078 113.458382,153.922607 
	C106.377029,155.099640 102.967674,151.499100 100.191368,146.015015 
	C97.522438,140.743057 93.995659,135.905380 90.578842,130.639450 
z"/>
<path fill="#05A95B" opacity="1.000000" stroke="none" 
	d="
M122.946075,94.015457 
	C126.977631,87.583176 131.009201,81.150894 135.132904,74.368271 
	C139.642532,67.247971 144.183228,60.553719 148.413376,53.668663 
	C149.980515,51.117985 151.671356,50.018383 154.729004,50.122108 
	C161.506027,50.352009 168.296555,50.183800 175.540115,50.072624 
	C181.436569,50.066303 186.888092,50.441422 192.307983,50.174477 
	C196.435913,49.971161 199.209396,51.041512 200.906250,55.021473 
	C201.927826,57.417599 203.636810,59.520649 205.290070,61.962872 
	C209.908432,69.306335 214.316925,76.416473 218.605881,83.598000 
	C219.576401,85.223045 220.131454,87.096184 220.824005,89.202759 
	C215.770309,97.302299 210.770355,105.054192 205.263153,112.884087 
	C200.734970,106.444077 196.714066,99.926071 192.955872,93.103043 
	C195.554291,90.351395 194.770264,88.203392 193.530182,85.246010 
	C188.651398,73.611244 180.550262,68.634720 168.012131,71.219391 
	C166.417938,71.548035 164.615616,70.962402 163.065872,71.379936 
	C161.907562,71.692009 161.000778,72.937607 159.696548,73.966736 
	C155.417618,80.689178 151.424133,87.212395 147.198761,93.954895 
	C143.415894,99.780334 139.713562,105.300064 136.426666,111.057014 
	C135.661743,112.396774 135.662537,114.907700 136.420441,116.256203 
	C139.749573,122.179543 143.485519,127.874229 147.073990,133.651794 
	C139.336914,133.701523 131.599854,133.751236 123.317612,133.417465 
	C119.520416,127.680389 116.427063,122.220573 112.945763,117.020477 
	C111.337097,114.617569 111.176552,112.933418 112.842224,110.453766 
	C116.425690,105.119102 119.602699,99.511406 122.946075,94.015457 
z"/>
<path fill="#F38736" opacity="1.000000" stroke="none" 
	d="
M192.693161,93.408066 
	C196.714066,99.926071 200.734970,106.444077 204.986511,113.156868 
	C210.263138,121.442627 215.309174,129.533585 220.615723,137.829956 
	C220.159348,139.831741 219.681320,141.774338 218.686035,143.400299 
	C213.066467,152.580856 207.013138,161.511749 201.752686,170.889572 
	C199.144180,175.539749 196.142609,177.914978 189.964020,177.078522 
	C179.292801,177.065063 169.500473,176.785233 159.731064,177.138748 
	C153.957855,177.347656 148.971756,176.910568 146.295105,170.918106 
	C143.020767,165.803864 139.746414,160.689606 136.365265,155.063477 
	C136.258438,154.551605 136.305908,154.059097 136.305908,154.059097 
	C144.082001,154.115906 151.861603,154.049240 159.633087,154.268906 
	C165.765762,154.442245 171.888458,154.967941 178.605072,155.463821 
	C182.816238,156.910583 185.131851,155.400055 186.917114,152.265228 
	C188.796371,148.965393 190.701828,145.646896 192.955978,142.603302 
	C195.330170,139.397659 195.498642,136.671707 192.368134,134.002090 
	C188.273361,127.413803 184.178589,120.825516 179.730896,113.728363 
	C175.962799,107.581299 172.699677,101.840721 169.021637,96.379578 
	C168.142899,95.074829 165.916611,94.109818 164.248138,94.008438 
	C158.657425,93.668739 153.038666,93.790512 147.430649,93.735611 
	C151.424133,87.212395 155.417618,80.689178 160.163422,74.021820 
	C166.029190,73.893837 171.164978,73.641396 176.244598,74.064095 
	C178.159546,74.223465 180.541428,75.502464 181.680237,77.036072 
	C185.597031,82.310860 189.058304,87.923904 192.693161,93.408066 
z"/>
<path fill="#E9E8E8" opacity="1.000000" stroke="none" 
	d="
M145.901581,170.944290 
	C148.971756,176.910568 153.957855,177.347656 159.731064,177.138748 
	C169.500473,176.785233 179.292801,177.065063 189.536850,177.167557 
	C189.381897,178.473495 189.079636,180.145294 188.093246,180.826431 
	C184.412811,183.367920 180.508026,185.584549 176.339233,187.961777 
	C172.384705,185.751572 170.037323,186.771927 168.678391,190.710709 
	C168.209396,192.070068 167.453903,193.330597 166.200623,194.851013 
	C164.529938,195.594604 163.487946,196.123428 162.445953,196.652252 
	C163.298233,197.101501 164.150528,197.550751 165.002808,198.000000 
	C163.941132,200.548813 162.879471,203.097641 161.222229,205.818085 
	C159.066666,204.318893 157.506699,202.648056 155.946747,200.977219 
	C156.565918,195.705048 154.069687,192.024918 149.748901,189.512619 
	C143.576569,185.923782 137.110870,185.833679 130.745132,188.893417 
	C124.954704,191.676590 122.516449,196.418533 123.189278,202.657822 
	C123.818962,208.497055 126.734337,211.696625 133.140015,213.501877 
	C134.248962,213.814407 135.405304,213.958817 136.742065,214.647186 
	C135.635742,216.059509 134.327072,217.005539 133.018417,217.951584 
	C129.777298,217.951584 126.536179,217.951584 122.734489,217.951584 
	C122.858711,219.549545 122.963661,220.899612 123.067726,222.625427 
	C121.990379,223.000366 120.913910,222.999573 119.478523,222.591049 
	C122.244720,210.646362 118.129204,203.699005 106.000740,200.037552 
	C106.762169,198.832565 107.257912,197.268570 108.326073,196.478058 
	C119.144104,188.472107 130.030823,180.557831 140.974426,172.724228 
	C142.250320,171.810898 143.985687,171.539474 145.901581,170.944290 
z"/>
<path fill="#DFDFDF" opacity="1.000000" stroke="none" 
	d="
M215.959808,187.852631 
	C208.598114,187.728348 201.236404,187.604065 193.426880,187.331360 
	C194.952667,186.789230 196.918610,186.109314 198.901367,186.056046 
	C204.618027,185.902420 210.341476,186.001587 216.530823,186.001953 
	C217.002182,186.296326 216.997513,186.590103 216.952118,187.101562 
	C216.918839,187.319351 216.859650,187.768097 216.713501,187.776611 
	C216.364838,187.807602 216.162323,187.830109 215.959808,187.852631 
z"/>
<path fill="#DFDFDF" opacity="1.000000" stroke="none" 
	d="
M190.072235,213.962311 
	C190.498505,215.175598 190.627182,216.392624 190.755859,217.609650 
	C190.446655,217.740967 190.137466,217.872284 189.828278,218.003601 
	C189.228790,216.913727 188.629303,215.823853 188.008469,214.369354 
	C188.582962,213.991821 189.178787,213.978928 190.072235,213.962311 
z"/>
<path fill="#3F3C3D" opacity="1.000000" stroke="none" 
	d="
M105.596924,200.125824 
	C118.129204,203.699005 122.244720,210.646362 119.074966,222.591919 
	C116.452080,227.492767 112.835037,230.625244 107.322174,231.873444 
	C93.128647,231.509903 87.792580,225.842194 87.998299,211.452911 
	C89.223557,209.350357 90.450073,207.672012 91.758743,206.060379 
	C95.219490,201.798416 99.889740,200.267136 105.596924,200.125824 
M105.288010,224.248062 
	C106.501831,223.757584 107.872398,223.482895 108.900230,222.736359 
	C112.040642,220.455383 112.965790,215.514328 110.997040,211.917099 
	C109.031548,208.325851 105.788063,207.273697 102.079361,208.318954 
	C97.925781,209.489578 96.506454,212.754639 96.803909,216.836105 
	C97.147285,221.547638 99.705940,224.071228 105.288010,224.248062 
z"/>
<path fill="#3E3B3C" opacity="1.000000" stroke="none" 
	d="
M85.727173,209.733612 
	C83.890617,212.780685 80.185432,212.989594 77.523674,210.477112 
	C73.983795,207.135742 69.433517,206.800232 66.439148,209.659805 
	C63.416332,212.546539 63.138203,218.196060 65.852097,221.584335 
	C68.626335,225.047943 73.458435,225.188721 76.950584,222.415848 
	C79.255074,220.586029 82.104553,219.442566 85.802834,217.383301 
	C85.938873,224.092606 83.646194,227.452286 79.588997,229.557877 
	C73.047966,232.952530 66.749756,232.159302 60.510471,227.695740 
	C52.025311,217.475220 56.599655,206.491028 62.881298,202.826599 
	C70.959702,198.114029 81.362747,201.053345 85.727173,209.733612 
z"/>
<path fill="#E8E9EA" opacity="1.000000" stroke="none" 
	d="
M135.981018,154.013535 
	C136.305908,154.059097 136.258438,154.551605 136.178085,154.785660 
	C135.773300,154.933044 135.498383,154.765259 135.143524,154.309708 
	C135.228073,154.058044 135.442093,154.013016 135.981018,154.013535 
z"/>
<path fill="#F19B58" opacity="1.000000" stroke="none" 
	d="
M160.971069,242.996429 
	C157.960541,246.266617 154.838699,246.911163 151.248703,242.777893 
	C151.029572,240.470764 151.102264,238.781967 151.174942,237.093155 
	C154.877167,232.540466 158.525558,235.945374 162.590973,237.432724 
	C162.970673,238.847244 162.948135,239.996704 162.603455,241.054382 
	C161.844574,241.640549 161.407822,242.318497 160.971069,242.996429 
M157.811447,237.609222 
	C155.368652,236.556610 153.235794,236.971832 153.181580,239.855728 
	C153.158752,241.070068 155.275330,243.469604 156.134979,243.346390 
	C159.005661,242.934891 159.662674,240.776505 157.811447,237.609222 
z"/>
<path fill="#F2954B" opacity="1.000000" stroke="none" 
	d="
M162.925583,241.146149 
	C162.948135,239.996704 162.970673,238.847244 162.956970,237.265381 
	C163.636795,236.325699 164.361237,235.383224 165.067383,235.396744 
	C166.845734,235.430756 168.615829,235.895935 170.950562,236.280807 
	C170.935837,236.173676 171.064362,237.108521 171.155823,238.421555 
	C171.081650,239.640579 171.044556,240.481400 171.083847,242.100052 
	C171.165741,243.603500 171.171265,244.329102 171.176773,245.054718 
	C169.276611,243.816864 167.376465,242.579010 164.446045,240.669983 
	C163.566483,240.546326 166.954315,246.067368 162.775421,243.073914 
	C162.812683,241.986191 162.869141,241.566177 162.925583,241.146149 
M168.448410,238.158249 
	C168.389511,238.528671 168.330612,238.899109 168.271698,239.269531 
	C168.457977,239.030472 168.644257,238.791412 168.448410,238.158249 
z"/>
<path fill="#F19A56" opacity="1.000000" stroke="none" 
	d="
M150.169815,242.972260 
	C146.883865,246.857254 144.985199,246.770248 141.078674,242.283127 
	C141.209412,235.209457 144.008224,233.430130 149.745636,236.887283 
	C147.627884,237.786194 145.524338,237.991791 143.542862,238.597000 
	C143.237167,238.690369 143.205490,241.448929 143.534576,241.562500 
	C145.506042,242.242920 147.619995,242.510834 149.686752,242.914078 
	C149.845505,242.945068 150.008698,242.953400 150.169815,242.972260 
z"/>
<path fill="#E7DAD1" opacity="1.000000" stroke="none" 
	d="
M150.369995,242.989792 
	C150.008698,242.953400 149.845505,242.945068 149.686752,242.914078 
	C147.619995,242.510834 145.506042,242.242920 143.534576,241.562500 
	C143.205490,241.448929 143.237167,238.690369 143.542862,238.597000 
	C145.524338,237.991791 147.627884,237.786194 149.951797,237.213028 
	C150.212158,236.976379 150.695541,237.009689 150.935242,237.051422 
	C151.102264,238.781967 151.029572,240.470764 150.964447,242.585754 
	C150.972000,243.011948 150.570160,243.007324 150.369995,242.989792 
z"/>
<path fill="#F09F62" opacity="1.000000" stroke="none" 
	d="
M173.650482,236.057587 
	C173.750626,236.281708 173.653793,236.626114 173.335480,236.988892 
	C173.092010,236.675476 173.205200,236.399002 173.650482,236.057587 
z"/>
<path fill="#DFDFDF" opacity="1.000000" stroke="none" 
	d="
M172.530518,238.966797 
	C172.525330,239.141754 172.263763,239.362213 171.882721,239.347870 
	C171.933548,239.079468 172.103836,239.045898 172.530518,238.966797 
z"/>
<path fill="#DFDFDF" opacity="1.000000" stroke="none" 
	d="
M171.495972,245.039154 
	C171.171265,244.329102 171.165741,243.603500 171.126282,242.518448 
	C171.744232,242.858612 172.396133,243.558197 173.072205,244.624161 
	C172.669296,245.001541 172.242218,245.012573 171.495972,245.039154 
z"/>
<path fill="#DFDFDF" opacity="1.000000" stroke="none" 
	d="
M162.603455,241.054382 
	C162.869141,241.566177 162.812683,241.986191 162.671967,242.713318 
	C162.228668,243.014450 161.869675,243.008469 161.240875,242.999451 
	C161.407822,242.318497 161.844574,241.640549 162.603455,241.054382 
z"/>
<path fill="#DFDFDF" opacity="1.000000" stroke="none" 
	d="
M222.474640,187.730988 
	C221.835648,187.789688 221.651688,187.730362 221.177826,187.664886 
	C221.785233,187.109177 222.674866,186.097961 223.581055,186.082886 
	C230.993011,185.959610 238.408417,185.991821 245.821564,186.079315 
	C246.491028,186.087219 247.151993,186.815628 247.908630,187.604187 
	C247.831589,187.974487 247.662827,187.950043 247.003845,187.826111 
	C246.329453,187.767349 246.145248,187.808090 245.961044,187.848831 
	C238.283920,187.770203 230.606796,187.691574 222.474640,187.730988 
z"/>
<path fill="#E7E6E6" opacity="1.000000" stroke="none" 
	d="
M155.499390,200.977783 
	C157.506699,202.648056 159.066666,204.318893 160.984619,206.058060 
	C160.263840,208.707169 159.185059,211.287949 157.776123,214.658554 
	C154.492477,207.386108 148.434280,206.153488 142.113907,205.415649 
	C141.453537,205.338562 140.717178,205.426178 140.145844,205.159454 
	C138.034668,204.173828 135.878494,203.209320 134.010742,201.860794 
	C133.738358,201.664139 134.717484,198.489594 135.501083,198.302902 
	C138.086777,197.686874 142.197159,196.622147 143.293564,197.867599 
	C146.799072,201.849716 150.925217,200.871841 155.499390,200.977783 
z"/>
<path fill="#E6E6E6" opacity="1.000000" stroke="none" 
	d="
M133.163132,218.286835 
	C134.327072,217.005539 135.635742,216.059509 137.088257,214.772400 
	C139.344818,214.677628 141.583496,214.580643 143.525101,215.293167 
	C144.780746,215.753983 146.205673,217.300537 146.409775,218.547882 
	C146.551010,219.411148 144.886292,221.269058 143.773300,221.511688 
	C139.905548,222.354904 135.836746,222.999786 133.163132,218.286835 
z"/>
<path fill="#D3D3D3" opacity="1.000000" stroke="none" 
	d="
M176.757538,213.688416 
	C176.028534,214.759048 175.194839,215.861649 174.189163,216.051041 
	C172.446014,216.379318 170.596375,216.142181 167.951645,216.142181 
	C169.567993,212.309692 170.923248,209.096252 172.751480,204.761368 
	C174.339859,208.311996 175.457657,210.810669 176.757538,213.688416 
z"/>
<path fill="#E7E6E6" opacity="1.000000" stroke="none" 
	d="
M165.241364,197.777390 
	C164.150528,197.550751 163.298233,197.101501 162.445953,196.652252 
	C163.487946,196.123428 164.529938,195.594604 165.957108,195.094421 
	C166.054840,195.933624 165.767395,196.744202 165.241364,197.777390 
z"/>
<path fill="#2D292B" opacity="1.000000" stroke="none" 
	d="
M216.035767,188.027527 
	C216.162323,187.830109 216.364838,187.807602 216.796783,187.987015 
	C216.721405,188.193420 216.416550,188.197922 216.035767,188.027527 
z"/>
<path fill="#2D292B" opacity="1.000000" stroke="none" 
	d="
M246.042862,188.024399 
	C246.145248,187.808090 246.329453,187.767349 246.753220,187.877228 
	C246.703415,188.085220 246.414047,188.142593 246.042862,188.024399 
z"/>
<path fill="#E4D6CD" opacity="1.000000" stroke="none" 
	d="
M213.668091,240.947281 
	C211.903122,243.725800 209.791534,244.290298 208.057755,241.750793 
	C207.498795,240.932083 208.145386,238.191177 209.014526,237.700424 
	C211.745758,236.158173 213.312500,237.711105 213.668091,240.947281 
z"/>
<path fill="#E7CBB7" opacity="1.000000" stroke="none" 
	d="
M219.181412,237.544342 
	C220.153748,237.597580 221.110138,237.975281 222.128220,238.711426 
	C221.181763,238.669510 220.173630,238.269135 219.181412,237.544342 
z"/>
<path fill="#EBECEB" opacity="1.000000" stroke="none" 
	d="
M147.198761,93.954895 
	C153.038666,93.790512 158.657425,93.668739 164.248138,94.008438 
	C165.916611,94.109818 168.142899,95.074829 169.021637,96.379578 
	C172.699677,101.840721 175.962799,107.581299 179.450760,113.585007 
	C178.785934,115.246460 178.117584,116.588074 177.298615,117.830391 
	C173.850647,123.060760 171.446472,130.279388 166.575943,132.907288 
	C161.674866,135.551666 154.304581,133.619598 147.545135,133.672333 
	C143.485519,127.874229 139.749573,122.179543 136.420441,116.256203 
	C135.662537,114.907700 135.661743,112.396774 136.426666,111.057014 
	C139.713562,105.300064 143.415894,99.780334 147.198761,93.954895 
z"/>
<path fill="#DFE5E4" opacity="1.000000" stroke="none" 
	d="
M122.535805,93.963959 
	C119.602699,99.511406 116.425690,105.119102 112.842224,110.453766 
	C111.176552,112.933418 111.337097,114.617569 112.945763,117.020477 
	C116.427063,122.220573 119.520416,127.680389 122.849266,133.350159 
	C119.146835,134.551651 116.761162,133.076996 114.889511,129.682465 
	C111.922249,124.300835 105.969597,119.121315 106.030098,113.911438 
	C106.093369,108.462158 111.889885,103.146301 114.938179,97.638130 
	C116.596046,94.642441 118.670357,93.117241 122.535805,93.963959 
z"/>
<path fill="#E3E0DE" opacity="1.000000" stroke="none" 
	d="
M192.163544,134.297394 
	C195.498642,136.671707 195.330170,139.397659 192.955978,142.603302 
	C190.701828,145.646896 188.796371,148.965393 186.917114,152.265228 
	C185.131851,155.400055 182.816238,156.910583 178.958679,155.268250 
	C183.134857,148.161560 187.546906,141.377121 192.163544,134.297394 
z"/>
<path fill="#D6E1D9" opacity="1.000000" stroke="none" 
	d="
M192.955872,93.103043 
	C189.058304,87.923904 185.597031,82.310860 181.680237,77.036072 
	C180.541428,75.502464 178.159546,74.223465 176.244598,74.064095 
	C171.164978,73.641396 166.029190,73.893837 160.448868,73.822601 
	C161.000778,72.937607 161.907562,71.692009 163.065872,71.379936 
	C164.615616,70.962402 166.417938,71.548035 168.012131,71.219391 
	C180.550262,68.634720 188.651398,73.611244 193.530182,85.246010 
	C194.770264,88.203392 195.554291,90.351395 192.955872,93.103043 
z"/>
<path fill="#E3E2E2" opacity="1.000000" stroke="none" 
	d="
M104.874146,224.274323 
	C99.705940,224.071228 97.147285,221.547638 96.803909,216.836105 
	C96.506454,212.754639 97.925781,209.489578 102.079361,208.318954 
	C105.788063,207.273697 109.031548,208.325851 110.997040,211.917099 
	C112.965790,215.514328 112.040642,220.455383 108.900230,222.736359 
	C107.872398,223.482895 106.501831,223.757584 104.874146,224.274323 
z"/>
<path fill="#E6DCD6" opacity="1.000000" stroke="none" 
	d="
M158.090149,237.878143 
	C159.662674,240.776505 159.005661,242.934891 156.134979,243.346390 
	C155.275330,243.469604 153.158752,241.070068 153.181580,239.855728 
	C153.235794,236.971832 155.368652,236.556610 158.090149,237.878143 
z"/>
<path fill="#DFDFDF" opacity="1.000000" stroke="none" 
	d="
M168.639465,238.355301 
	C168.644257,238.791412 168.457977,239.030472 168.271698,239.269531 
	C168.330612,238.899109 168.389511,238.528671 168.639465,238.355301 
z"/>
</svg>