<svg width="100" height="100" viewBox="0 0 100 100" fill="none" xmlns="http://www.w3.org/2000/svg">
<g clip-path="url(#clip0_1675_2100)">
<circle cx="50" cy="50" r="50" fill="url(#paint0_linear_1675_2100)"/>
<g filter="url(#filter0_d_1675_2100)">
<path d="M23.7253 56.6998C22.6926 55.0995 21.8654 53.5153 20.8035 52.1008C19.8233 50.795 19.6446 49.6924 20.8039 48.441C21.228 47.9831 21.4831 47.3743 21.838 46.7093C23.509 43.9787 25.2138 41.4054 26.7882 38.7575C28.1021 36.5476 29.3612 34.6548 32.5607 35.0534C35.2079 35.3831 37.9304 35.1294 40.7674 35.3042C39.3565 37.9157 37.7978 40.3572 36.0805 42.7791C34.5861 42.4577 33.7841 43.0366 33.1431 44.1737C31.9646 46.2644 29.7236 48.2821 29.6991 50.3505C29.6757 52.328 31.9771 54.2939 33.1243 56.3366C33.8479 57.6251 34.7703 58.1848 36.4125 57.8743C39.5849 57.881 42.5762 57.8621 45.7496 57.851C48.363 57.831 51.2125 58.5644 53.1073 57.5606C54.9904 56.5632 55.9199 53.8232 57.2529 51.838C57.5696 51.3664 57.828 50.8572 58.2214 50.4197C59.9129 52.9748 61.496 55.4755 63 58.0883C61.2151 60.7755 59.5093 63.3506 57.6668 66C55.1613 65.9341 52.7941 65.7346 50.4231 65.6688C47.4185 65.5854 44.4107 65.6107 41.2787 65.5718C41.0704 65.5716 40.9876 65.5887 40.9049 65.6058C38.1861 65.57 35.4673 65.5341 32.571 65.5373C29.8332 65.9841 28.5151 64.6174 27.4417 62.5359C26.4099 60.5348 25.0464 58.6986 23.7253 56.6998Z" fill="#E8F5ED"/>
</g>
<g filter="url(#filter1_d_1675_2100)">
<path d="M36.3408 42.8172C37.892 40.3556 39.4431 37.8939 41.0298 35.2981C42.7649 32.5731 44.5119 30.0112 46.1395 27.3763C46.7425 26.4001 47.3931 25.9793 48.5695 26.019C51.177 26.107 53.7897 26.0426 56.5767 26C58.8454 25.9976 60.9429 26.1412 63.0283 26.039C64.6165 25.9612 65.6836 26.3708 66.3365 27.894C66.7296 28.811 67.3871 29.6158 68.0232 30.5505C69.8002 33.3609 71.4964 36.082 73.1466 38.8304C73.52 39.4523 73.7335 40.1692 74 40.9754C72.0556 44.0751 70.1318 47.0418 68.0129 50.0384C66.2706 47.5737 64.7235 45.0793 63.2775 42.468C64.2773 41.415 63.9756 40.5929 63.4985 39.4611C61.6214 35.0084 58.5044 33.1039 53.6803 34.093C53.0669 34.2188 52.3734 33.9947 51.7772 34.1545C51.3315 34.2739 50.9826 34.7506 50.4808 35.1445C48.8345 37.7172 47.2979 40.2137 45.6722 42.794C44.2167 45.0235 42.7922 47.1359 41.5276 49.3391C41.2332 49.8519 41.2336 50.8128 41.5252 51.3289C42.8061 53.5958 44.2435 55.7752 45.6242 57.9863C42.6473 58.0053 39.6704 58.0244 36.4838 57.8966C35.0228 55.701 33.8326 53.6115 32.4931 51.6214C31.8742 50.7018 31.8124 50.0572 32.4533 49.1083C33.832 47.0667 35.0544 44.9206 36.3408 42.8172Z" fill="#E8F5ED"/>
</g>
<g filter="url(#filter2_d_1675_2100)">
<path d="M63.0721 42.5728C64.6457 45.094 66.2194 47.6151 67.8833 50.2115C69.9484 53.4164 71.9232 56.5459 74 59.7549C73.8214 60.5292 73.6343 61.2806 73.2448 61.9095C71.0455 65.4605 68.6764 68.9149 66.6177 72.5421C65.5968 74.3408 64.4221 75.2595 62.004 74.936C57.8277 74.9308 53.9953 74.8225 50.1719 74.9593C47.9125 75.0401 45.9611 74.871 44.9135 72.5532C43.6321 70.575 42.3506 68.5969 41.0273 66.4207C40.9855 66.2227 41.0041 66.0322 41.0041 66.0322C44.0474 66.0542 47.0921 66.0284 50.1335 66.1134C52.5337 66.1804 54.9299 66.3838 57.5585 66.5756C59.2066 67.1352 60.1129 66.5509 60.8116 65.3384C61.547 64.062 62.2928 62.7784 63.175 61.6012C64.1041 60.3613 64.1701 59.3069 62.9449 58.2743C61.3423 55.726 59.7398 53.1777 57.9991 50.4326C56.5244 48.0549 55.2473 45.8345 53.8079 43.7222C53.464 43.2175 52.5927 42.8443 51.9397 42.8051C49.7517 42.6737 47.5527 42.7208 45.3579 42.6995C46.9209 40.1764 48.4838 37.6533 50.3411 35.0744C52.6368 35.0249 54.6467 34.9272 56.6347 35.0907C57.3841 35.1524 58.3163 35.6471 58.762 36.2403C60.2949 38.2805 61.6495 40.4516 63.0721 42.5728Z" fill="#E8F5ED"/>
</g>
</g>
<defs>
<filter id="filter0_d_1675_2100" x="16" y="35" width="51" height="39" filterUnits="userSpaceOnUse" color-interpolation-filters="sRGB">
<feFlood flood-opacity="0" result="BackgroundImageFix"/>
<feColorMatrix in="SourceAlpha" type="matrix" values="0 0 0 0 0 0 0 0 0 0 0 0 0 0 0 0 0 0 127 0" result="hardAlpha"/>
<feOffset dy="4"/>
<feGaussianBlur stdDeviation="2"/>
<feComposite in2="hardAlpha" operator="out"/>
<feColorMatrix type="matrix" values="0 0 0 0 0.216346 0 0 0 0 0.216346 0 0 0 0 0.216346 0 0 0 0.16 0"/>
<feBlend mode="normal" in2="BackgroundImageFix" result="effect1_dropShadow_1675_2100"/>
<feBlend mode="normal" in="SourceGraphic" in2="effect1_dropShadow_1675_2100" result="shape"/>
</filter>
<filter id="filter1_d_1675_2100" x="28" y="26" width="50" height="40" filterUnits="userSpaceOnUse" color-interpolation-filters="sRGB">
<feFlood flood-opacity="0" result="BackgroundImageFix"/>
<feColorMatrix in="SourceAlpha" type="matrix" values="0 0 0 0 0 0 0 0 0 0 0 0 0 0 0 0 0 0 127 0" result="hardAlpha"/>
<feOffset dy="4"/>
<feGaussianBlur stdDeviation="2"/>
<feComposite in2="hardAlpha" operator="out"/>
<feColorMatrix type="matrix" values="0 0 0 0 0.216346 0 0 0 0 0.216346 0 0 0 0 0.216346 0 0 0 0.16 0"/>
<feBlend mode="normal" in2="BackgroundImageFix" result="effect1_dropShadow_1675_2100"/>
<feBlend mode="normal" in="SourceGraphic" in2="effect1_dropShadow_1675_2100" result="shape"/>
</filter>
<filter id="filter2_d_1675_2100" x="37" y="35" width="41" height="48" filterUnits="userSpaceOnUse" color-interpolation-filters="sRGB">
<feFlood flood-opacity="0" result="BackgroundImageFix"/>
<feColorMatrix in="SourceAlpha" type="matrix" values="0 0 0 0 0 0 0 0 0 0 0 0 0 0 0 0 0 0 127 0" result="hardAlpha"/>
<feOffset dy="4"/>
<feGaussianBlur stdDeviation="2"/>
<feComposite in2="hardAlpha" operator="out"/>
<feColorMatrix type="matrix" values="0 0 0 0 0.216346 0 0 0 0 0.216346 0 0 0 0 0.216346 0 0 0 0.16 0"/>
<feBlend mode="normal" in2="BackgroundImageFix" result="effect1_dropShadow_1675_2100"/>
<feBlend mode="normal" in="SourceGraphic" in2="effect1_dropShadow_1675_2100" result="shape"/>
</filter>
<linearGradient id="paint0_linear_1675_2100" x1="50" y1="32" x2="127.029" y2="98.0908" gradientUnits="userSpaceOnUse">
<stop stop-color="#01A758"/>
<stop offset="1" stop-color="#004122"/>
</linearGradient>
<clipPath id="clip0_1675_2100">
<rect width="100" height="100" fill="white"/>
</clipPath>
</defs>
</svg>
